<svg width="29" height="29" viewBox="0 0 29 29" fill="none" xmlns="http://www.w3.org/2000/svg">
<g clip-path="url(#clip0)">
<path d="M17.9456 20.5493C17.9052 19.9817 17.8092 19.4197 17.659 18.8715C17.5616 18.5196 17.4055 18.1811 17.3712 17.81C17.3599 17.7412 17.3334 17.6758 17.2938 17.6188C17.265 17.5727 17.1831 17.5334 17.1831 17.4985C17.2196 17.2219 17.0282 17.0375 16.9319 16.8148C16.8079 16.5292 16.6862 16.2413 16.5446 15.9669C16.3937 15.7075 16.2262 15.4585 16.0432 15.2214C15.6072 14.5984 15.0472 14.089 14.5116 13.565C14.2141 13.2843 13.8918 13.0321 13.5488 12.8115C13.27 12.6069 12.9656 12.4409 12.6436 12.3179C12.3253 12.1952 12.0161 12.0494 11.7184 11.8816C11.4263 11.733 11.1147 11.6277 10.7932 11.569C10.4701 11.5071 10.1724 11.3441 9.83378 11.3441C9.66335 11.3441 9.49293 11.2316 9.32693 11.2474C9.13547 11.2575 8.98386 11.1776 8.81897 11.1248C8.67422 11.0865 8.54547 11.0018 8.45179 10.8833C8.35811 10.7648 8.30447 10.6188 8.29884 10.4669C8.28777 10.1363 8.48587 9.90469 8.83889 9.76862C9.00092 9.70157 9.17315 9.66353 9.34795 9.65617C9.52154 9.64503 9.69245 9.60711 9.8548 9.54372C10.2632 9.40091 10.7158 9.43127 11.1064 9.22436C11.4384 9.29408 11.652 9.02082 11.9298 8.93311C12.3337 8.80492 12.6613 8.47543 13.104 8.42258C13.3552 8.1392 13.6905 7.97278 13.9893 7.74788C14.6179 7.29807 15.1502 6.72907 15.657 6.15107C16.2212 5.48154 16.6906 4.73513 17.0514 3.93354C17.1831 3.65241 17.3081 3.36116 17.4409 3.08341C17.5823 2.76346 17.6681 2.42104 17.6944 2.07135C17.7409 1.57094 17.9301 1.1009 17.9445 0.592617C17.9445 0.38908 18.1404 0.191167 18.2422 0H18.9803C19.2636 0.18442 19.3223 0.508278 19.371 0.853503C19.4218 1.31013 19.5106 1.76155 19.6366 2.20292C19.6864 2.36035 19.6155 2.54814 19.7384 2.66172C19.9033 2.81465 19.724 3.04855 19.9188 3.2161C20.0571 3.3353 20.0792 3.58944 20.1666 3.77835C20.2541 3.96727 20.3537 4.11571 20.4378 4.28214C20.9789 5.37741 21.3032 5.72488 21.8454 6.38834C22.2923 6.94211 22.8139 7.42896 23.3948 7.83446C24.0402 8.29811 24.7325 8.69053 25.4598 9.00508C26.0994 9.26821 26.7966 9.32444 27.4064 9.65842C27.7384 9.58195 28.0339 9.77087 28.3559 9.77087C28.5148 9.77436 28.6669 9.83658 28.7838 9.94588C28.9008 10.0552 28.9745 10.2041 28.9911 10.3646C29.0062 10.5345 28.9599 10.7042 28.861 10.842C28.762 10.9798 28.6171 11.0763 28.4533 11.1135C28.1766 11.1664 27.9 11.199 27.6145 11.226C27.4959 11.246 27.38 11.28 27.2692 11.3272C26.8265 11.4756 26.3595 11.5364 25.9202 11.687C25.4648 11.8332 25.0262 12.0289 24.6121 12.2707C24.2723 12.4787 23.8961 12.6294 23.5962 12.9116C23.3914 13.1017 23.1336 13.2321 22.9189 13.4132C22.6865 13.6111 22.5083 13.8742 22.2206 14.0091C22.1736 14.0375 22.1332 14.0758 22.1022 14.1216C21.8897 14.387 21.6706 14.649 21.4681 14.9223C21.2036 15.2776 20.9446 15.6374 20.6934 16.004C20.6082 16.1311 20.5684 16.2885 20.4931 16.4246C20.2508 16.8643 20.1357 17.3681 19.8291 17.774C19.8089 17.8031 19.7995 17.8386 19.8026 17.8741C19.8288 18.1796 19.7536 18.4852 19.589 18.7422C19.5082 18.885 19.5779 19.0796 19.4938 19.264C19.3831 19.5125 19.3831 19.8262 19.361 20.1051C19.3378 20.4222 19.2802 20.682 18.9394 20.8259C18.5985 20.9699 18.3617 20.8822 18.1094 20.691C18.0441 20.6449 17.9788 20.5785 17.9456 20.5493ZM18.3882 5.73613C18.3462 5.88006 18.2975 6.02737 18.2599 6.17806C18.2178 6.34786 18.1813 6.51541 18.1492 6.69309C18.1165 6.93644 18.0347 7.17033 17.9091 7.38016C17.7774 7.5792 17.7154 7.82997 17.5837 8.02451C17.5073 8.13696 17.4819 8.29664 17.2904 8.36186C17.1355 8.41134 17.0193 8.60475 16.8965 8.74419C16.8036 8.87495 16.7027 8.99964 16.5944 9.11753C16.4837 9.21199 16.311 9.22998 16.2103 9.33568C15.9149 9.62918 15.4124 9.50324 15.1701 9.88669C14.9277 9.9238 14.6854 9.96316 14.443 9.99915C14.3047 10.0194 14.0822 10.1959 14.0557 10.3298C14.0214 10.4984 14.1011 10.6491 14.2549 10.6671C14.4297 10.684 14.3456 10.8774 14.433 10.8853C14.5205 10.8931 14.6179 10.8122 14.7152 10.7953C14.7851 10.7907 14.8551 10.8022 14.92 10.829C15.1001 10.8815 15.2771 10.9446 15.4501 11.018C15.9215 11.2429 16.4295 11.3947 16.7781 11.8197C16.9742 12.0788 17.1844 12.3266 17.4077 12.5619C17.7231 12.8678 17.8914 13.2535 18.0264 13.6516C18.1575 13.979 18.2364 14.3256 18.2599 14.6782C18.2735 14.7763 18.3187 14.8671 18.3883 14.9364C18.458 15.0058 18.5482 15.0498 18.645 15.0617C18.842 15.0527 18.8807 14.9211 18.9305 14.7412C19.019 14.4185 19.1839 14.1171 19.143 13.764C19.1445 13.7114 19.1589 13.6599 19.185 13.6144C19.2896 13.4161 19.3838 13.2123 19.4672 13.0038C19.5425 12.7789 19.8546 12.7148 19.8092 12.4247C19.8092 12.4101 19.8579 12.3809 19.8878 12.3662C20.1899 12.2167 20.3847 11.9569 20.5805 11.6915C20.6219 11.6489 20.668 11.6111 20.7178 11.5791C21.0608 11.3047 21.4736 11.1799 21.8698 11.0168C22.0502 10.9426 22.2361 10.8459 22.4298 10.9044C22.6843 10.9876 22.7341 10.6547 22.9477 10.6727C23.127 10.6885 23.21 10.5726 23.2321 10.4175C23.2542 10.2623 23.1303 10.1926 23.0108 10.1004C22.7595 9.90806 22.4309 10.1161 22.2095 9.88669C21.2988 9.73489 20.6038 9.20187 19.9962 8.54515C19.7678 8.30324 19.5907 8.01617 19.4761 7.70177C19.4097 7.54207 19.3324 7.38726 19.2448 7.23847C19.2048 7.18146 19.1707 7.12042 19.143 7.0563C19.0633 6.75268 18.9869 6.44682 18.9217 6.13983C18.8398 5.73388 18.8453 5.73275 18.3894 5.73613H18.3882Z" fill="#FED358"/>
<path d="M0.963928 24.7538C1.01151 24.34 1.01705 23.915 1.11997 23.5169C1.21811 23.1671 1.36732 22.8343 1.56263 22.5296C1.78206 22.1823 2.03011 21.8547 2.30409 21.5501C2.44683 21.4196 2.61036 21.3146 2.7877 21.2397C2.92161 21.1689 3.06879 21.1205 3.20934 21.0621C3.17503 20.7573 3.46276 20.9755 3.56347 20.8372C3.64647 20.7247 3.82686 20.6887 3.96961 20.6325C4.06801 20.6004 4.16916 20.5778 4.27173 20.565C4.40785 20.5392 4.55393 20.6134 4.68673 20.4852C4.73542 20.4391 4.87929 20.4852 4.97778 20.5077C5.04529 20.5178 5.13161 20.5819 5.17255 20.5583C5.49791 20.366 5.80888 20.6404 6.13756 20.5774C6.31068 20.5622 6.48287 20.6158 6.61785 20.727C6.85246 20.9215 7.12802 21.0182 7.38476 21.1588C7.85731 21.4174 8.19705 21.8256 8.5213 22.2518C8.71099 22.5214 8.86641 22.8142 8.98389 23.1233C9.10562 23.4123 9.16981 23.7182 9.28711 24.0072C9.36458 24.1995 9.28711 24.4514 9.30482 24.6751C9.31367 24.8146 9.24506 24.9686 9.37454 25.0968C9.38826 25.1254 9.39435 25.1572 9.39222 25.189C9.39008 25.2208 9.37979 25.2514 9.36236 25.2779C9.18751 25.4061 9.17423 25.5792 9.18973 25.7715C9.20329 25.8438 9.19851 25.9183 9.17586 25.9882C9.15321 26.058 9.11342 26.1208 9.06025 26.1707C8.96228 26.2686 8.89098 26.3907 8.8533 26.5249C8.78469 26.76 8.77362 27.0254 8.46486 27.0872C8.34534 27.4088 8.04101 27.5741 7.85288 27.8384L7.39915 28.3242C7.14683 28.2747 7.05498 28.6896 6.77168 28.5491C6.40094 28.8493 5.87639 28.6694 5.50455 28.9696C5.4802 28.9899 5.42487 29.009 5.40827 28.9955C5.04861 28.7256 4.58602 29.0439 4.22304 28.7785C4.17435 28.7436 4.07696 28.765 4.00171 28.7785C3.91271 28.7914 3.82195 28.782 3.73731 28.7513C3.65266 28.7205 3.57666 28.6692 3.51588 28.6019C3.37478 28.4735 3.20498 28.382 3.02121 28.3354C2.74012 28.2646 2.57854 28.0588 2.37492 27.8856C2.23769 27.763 2.17572 27.5842 2.00087 27.4797C1.84394 27.3616 1.72123 27.2027 1.64563 27.0197C1.44864 26.6172 1.2642 26.2075 1.0923 25.7906C0.960608 25.442 1.01483 25.1013 0.963928 24.7538ZM3.75603 24.6189C3.77816 24.936 3.72947 25.1654 3.86669 25.3903C3.99335 25.6159 4.17243 25.8064 4.3883 25.9454C4.60417 26.0844 4.85026 26.1676 5.10505 26.1876C5.6783 26.2371 6.43304 25.6894 6.51493 25.1261C6.58465 24.6605 6.56252 24.1758 6.14531 23.8351C5.9948 23.7114 5.84208 23.5911 5.68272 23.4798C5.57104 23.3969 5.45213 23.3247 5.32749 23.2639C5.1803 23.1964 5.03975 23.4179 4.85826 23.2762C4.80846 23.238 4.63029 23.4179 4.47646 23.3797C4.12897 23.762 3.62655 24.051 3.75603 24.6189Z" fill="#D2FE03"/>
<path d="M24.6785 28.8864C24.5125 28.8864 24.3 28.9516 24.1927 28.8718C23.9824 28.7166 23.6117 28.8201 23.5397 28.458C23.252 28.359 23.0827 28.1386 22.9621 27.8698C22.941 27.8226 22.941 27.7574 22.9089 27.7248C22.3921 27.1839 22.5648 26.5868 22.7341 25.9672C22.9432 25.198 23.5475 24.8629 24.1617 24.5244C24.466 24.6627 24.7493 24.1871 25.0581 24.4907C25.3901 24.4907 25.6922 24.5301 25.9257 24.8033C25.987 24.8634 26.0637 24.9047 26.147 24.9225C26.3982 24.9866 26.5178 25.171 26.6085 25.3937C26.6605 25.5207 26.7358 25.6399 26.7778 25.7704C26.8287 25.9244 27.0279 26.0099 26.9117 26.2562C26.8509 26.3866 27.0357 26.607 27.008 26.8184C26.9914 26.9477 27.008 27.0737 26.8807 27.1558C26.8398 27.185 26.7789 27.2469 26.7867 27.2784C26.8874 27.6708 26.5653 27.8991 26.4469 28.2038C26.4226 28.2679 26.385 28.3556 26.3363 28.3747C26.2068 28.4209 26.033 28.3927 25.9401 28.4726C25.8471 28.5524 25.8604 28.6975 25.6889 28.6626C25.6188 28.653 25.5475 28.6635 25.483 28.693C25.358 28.7481 25.2462 28.847 25.1178 28.8763C24.971 28.8955 24.8226 28.8982 24.6752 28.8841L24.6785 28.8864Z" fill="#88D1FE"/>
<path d="M4.20528 6.34216C4.03264 6.42987 3.81463 6.47935 3.87328 6.75373C3.88658 6.80848 3.88044 6.86624 3.85595 6.91684C3.83145 6.96745 3.79017 7.00764 3.73938 7.03036C3.54239 7.12482 3.35979 7.21478 3.3111 7.46217C3.30446 7.49366 3.16613 7.48129 3.12518 7.52402C2.98906 7.66796 2.69026 7.52402 2.63493 7.81189C2.63493 7.83888 2.48664 7.87936 2.44569 7.85238C2.23211 7.71181 1.99086 7.78828 1.77284 7.73993C1.42485 7.65504 1.08404 7.54224 0.753611 7.40257C0.663971 7.36209 0.634091 7.18329 0.543345 7.12707C0.355213 7.00112 0.385093 6.75935 0.264467 6.62891C0.117282 6.47035 0.110642 6.31292 0.110642 6.12738C0.110642 6.06215 0.0530955 5.99918 0.0475622 5.93284C0.0265357 5.69556 0.0176825 5.45829 0.0032959 5.22214C0.254508 5.09283 0.168188 4.74535 0.38952 4.60029C0.542576 4.5004 0.673685 4.36947 0.774637 4.21571C0.830696 4.12255 0.907034 4.0437 0.997779 3.98522C1.08852 3.92673 1.19126 3.89017 1.29809 3.87835C1.56701 3.84799 1.81822 3.67594 2.10152 3.69843C2.3638 3.7198 2.67698 3.69056 2.87618 3.8255C3.20818 4.0504 3.64531 4.16285 3.83012 4.59467C3.92419 4.81957 4.1422 4.99837 4.19311 5.22439C4.25729 5.50777 4.2086 5.81814 4.2086 6.11726L4.20528 6.34216Z" fill="#FEAEFE"/>
<path d="M18.3893 5.73608C18.8453 5.73608 18.8397 5.73608 18.925 6.13529C18.9914 6.44228 19.0677 6.74814 19.1463 7.05176C19.174 7.11587 19.2081 7.17692 19.2481 7.23393C19.3349 7.38278 19.4115 7.53759 19.4772 7.69723C19.5918 8.01162 19.7689 8.2987 19.9973 8.54061C20.6015 9.19732 21.2965 9.73034 22.2106 9.88215C22.432 10.1071 22.764 9.90352 23.0119 10.0958C23.1347 10.1903 23.2608 10.2431 23.2332 10.4129C23.2055 10.5827 23.128 10.6839 22.9488 10.6682C22.7352 10.6502 22.6854 10.983 22.4309 10.8998C22.2372 10.8357 22.0513 10.9324 21.8709 11.0123C21.4747 11.1753 21.0619 11.3002 20.7189 11.5745C20.669 11.6066 20.623 11.6443 20.5816 11.687C20.3857 11.9479 20.191 12.2076 19.8889 12.3617C19.859 12.3763 19.807 12.4056 19.8103 12.4202C19.8557 12.7103 19.5436 12.78 19.4683 12.9993C19.3849 13.2077 19.2907 13.4115 19.1861 13.6099C19.16 13.6554 19.1456 13.7068 19.1441 13.7595C19.185 14.1126 19.0201 14.4139 18.9316 14.7367C18.8818 14.9166 18.8431 15.0481 18.6461 15.0571C18.5493 15.0452 18.4591 15.0012 18.3894 14.9319C18.3198 14.8625 18.2746 14.7718 18.261 14.6737C18.2375 14.321 18.1586 13.9744 18.0275 13.647C17.8924 13.2489 17.7242 12.8599 17.4088 12.5574C17.1855 12.3221 16.9753 12.0743 16.7791 11.8152C16.4272 11.3901 15.9193 11.2327 15.4512 11.0134C15.2782 10.9401 15.1012 10.877 14.9211 10.8245C14.8576 10.7949 14.7884 10.7803 14.7185 10.7818C14.6212 10.7986 14.5271 10.8796 14.4363 10.8717C14.3456 10.8638 14.4363 10.6704 14.2582 10.6536C14.1043 10.6401 14.0247 10.4894 14.059 10.3162C14.0855 10.1824 14.308 10.0058 14.4463 9.98561C14.6887 9.94962 14.931 9.91026 15.1734 9.87315C15.4157 9.4897 15.9182 9.61564 16.2136 9.32214C16.3143 9.22206 16.4881 9.19845 16.5976 9.10399C16.706 8.9861 16.8069 8.86141 16.8998 8.73065C17.0226 8.59121 17.1388 8.3933 17.2937 8.34832C17.4852 8.2876 17.5151 8.13129 17.587 8.01097C17.7187 7.81193 17.7807 7.56116 17.9124 7.36662C18.0351 7.1606 18.1157 6.93149 18.1492 6.69304C18.1813 6.51987 18.2178 6.34782 18.2599 6.17802C18.2986 6.02733 18.3473 5.88002 18.3893 5.73608Z" fill="#FEE9AB"/>
<path d="M3.75601 24.6189C3.62653 24.0566 4.12895 23.762 4.47644 23.3819C4.63027 23.4201 4.80844 23.2402 4.85824 23.2784C5.03973 23.4201 5.18028 23.1986 5.32746 23.2661C5.45186 23.3247 5.57076 23.3947 5.6827 23.4752C5.84206 23.5877 5.99478 23.7069 6.14528 23.8306C6.56249 24.1679 6.58794 24.656 6.51491 25.1215C6.4308 25.6838 5.67827 26.2325 5.10502 26.183C4.85181 26.1624 4.60735 26.0795 4.39275 25.9413C4.17815 25.8032 3.99987 25.6141 3.87331 25.3903C3.72945 25.1654 3.77814 24.936 3.75601 24.6189Z" fill="#EAFE91"/>
</g>
<defs>
<clipPath id="clip0">
<rect width="29" height="29" fill="white"/>
</clipPath>
</defs>
</svg>
