<svg width="28" height="27" viewBox="0 0 28 27" fill="none" xmlns="http://www.w3.org/2000/svg">
<g clip-path="url(#clip0)">
<path d="M5.93875 17.371L5.78887 17.5227C5.69285 17.4111 5.52774 17.2996 5.51955 17.1792C5.49847 16.8881 5.18231 16.6963 5.26428 16.3784C5.27578 16.2724 5.25885 16.1654 5.2151 16.0673C5.12025 15.7695 5.12142 15.6513 5.14952 15.2364C5.17294 14.9018 5.14952 14.5673 5.14952 14.2327V13.9751L5.34156 13.9271C5.36308 13.8981 5.37895 13.8656 5.3884 13.8312C5.3884 13.7018 5.3966 13.5714 5.3884 13.4409C5.38137 13.3293 5.40479 13.2758 5.53828 13.2613C5.57458 13.2613 5.63313 13.1096 5.61674 13.0383C5.59031 12.9379 5.60276 12.8318 5.65179 12.7394C5.70082 12.647 5.78316 12.5746 5.88372 12.5353C6.11791 12.4238 6.17294 12.2554 6.20924 12.0513C6.22095 11.981 6.20924 11.8684 6.24671 11.8483C6.64016 11.6442 6.70222 11.1725 7.06639 10.9483C7.43055 10.7241 7.6261 10.3093 8.04062 10.1163C8.12605 10.0745 8.19854 10.0122 8.25091 9.93554C8.30328 9.85886 8.33372 9.77048 8.33922 9.67916C8.35686 9.58852 8.40752 9.50672 8.48228 9.44817C8.55704 9.38961 8.6511 9.35807 8.74788 9.35909C8.78603 9.36157 8.82427 9.35593 8.85984 9.34259C8.89541 9.32925 8.92741 9.30853 8.95354 9.28194C8.97966 9.25536 8.99924 9.22357 9.01086 9.18888C9.02248 9.15419 9.02584 9.11747 9.02072 9.08139C9.01135 8.92303 9.12142 8.86504 9.24554 8.80593C9.4891 8.6944 9.74788 8.61076 9.85678 8.31411C9.90128 8.19143 10.1296 8.14013 10.2385 8.02526C10.3041 7.95834 10.2701 7.80221 10.3369 7.73753C10.4036 7.67284 10.5488 7.69403 10.6437 7.64719C10.7889 7.57582 10.7865 7.48102 10.6612 7.24682C10.7783 7.07061 10.9071 6.89998 11.0125 6.71596C11.1162 6.56564 11.1579 6.38413 11.1296 6.2063C10.9973 5.64868 10.9458 5.07544 10.5313 4.59924C10.1365 4.15596 9.6691 3.77634 9.14718 3.47507C8.95046 3.36355 8.85561 3.097 8.54062 3.11039C8.34039 3.11931 8.1343 2.98325 7.92587 2.92526C7.83325 2.90599 7.73836 2.89849 7.64367 2.90295C7.33153 2.91826 7.01871 2.91566 6.7069 2.89515C6.00432 2.81039 5.40011 3.13604 4.74671 3.25091C4.51252 3.29217 4.2877 3.47396 4.10034 3.63567C3.79355 3.90109 3.45046 4.11745 3.25725 4.51559C3.02306 4.99738 2.89191 5.42563 3.04531 5.90184C3.12376 6.14831 3.19753 6.39589 3.2795 6.64682L3.01955 6.76727L3.25374 6.82303C3.21513 6.90057 3.18492 6.98166 3.16358 7.06503C3.15602 7.17272 3.15602 7.28077 3.16358 7.38846C3.04648 7.53678 2.86732 7.66392 2.82634 7.82228C2.77013 8.04533 2.35093 7.75202 2.47505 8.1089C1.9165 8.24719 1.4329 8.00518 0.928214 7.91931C0.894256 7.91931 0.866153 7.88139 0.832196 7.87135C0.620252 7.80444 0.744374 7.6115 0.675287 7.48548C0.6062 7.35946 0.373179 7.4431 0.350931 7.23121C0.314631 6.88548 0.116739 6.57656 0.101517 6.20964C0.0874652 5.93306 -0.0226051 5.65202 0.0101818 5.36206C0.033601 5.15351 0.0991747 4.94831 0.119081 4.73864C0.138987 4.52898 0.110884 4.32935 0.12962 4.12637C0.137343 4.02201 0.181439 3.9231 0.254912 3.84533C0.489104 3.63121 0.549994 3.32674 0.704561 3.07135C0.887231 2.76801 1.00081 2.42117 1.40011 2.29069C1.45046 2.27507 1.52657 2.2037 1.51721 2.17916C1.44109 1.90035 1.71744 1.83009 1.85561 1.77433C2.10035 1.67284 2.12025 1.38065 2.40714 1.31039C2.56404 1.27247 2.68934 1.1208 2.90245 1.09849C3.08395 1.07953 3.26662 0.936782 3.41533 0.81299C3.57899 0.66934 3.78196 0.572686 4.00081 0.53418C4.30057 0.470417 4.59584 0.388845 4.88489 0.289942C5.01022 0.252595 5.14011 0.230853 5.2713 0.225258C5.41884 0.214105 5.5781 0.26206 5.69988 0.11931C5.71627 0.0992352 5.85327 0.172841 5.93407 0.205183L6.13196 0.0167075C6.16826 0.0167075 6.22095 -0.0111738 6.23969 0.00332433C6.47388 0.202953 6.75491 0.0780455 7.01252 0.114848C7.30175 -0.137196 7.5617 0.114849 7.83219 0.159458C7.92119 0.175072 8.00667 0.215221 8.09566 0.224143C8.66357 0.28102 9.22329 0.362432 9.735 0.62786C9.87457 0.708734 10.0314 0.758665 10.194 0.773956C10.2611 0.771449 10.3276 0.786431 10.3865 0.817286C10.4453 0.848141 10.4941 0.8937 10.5277 0.94905C10.5719 1.04073 10.6397 1.12024 10.7249 1.18013C10.8101 1.24001 10.9099 1.27831 11.0149 1.29143C11.2596 1.31708 11.4001 1.4866 11.5863 1.60147C11.9528 1.82451 12.2116 2.14236 12.4914 2.44793C12.5359 2.497 12.6355 2.49477 12.653 2.61076C12.6705 2.71414 12.7241 2.80887 12.8053 2.87953C12.975 3.01782 13.1683 3.12935 13.3591 3.25648C13.2947 3.62674 13.4142 3.92563 13.5722 4.24347C13.7526 4.60035 13.9317 4.9695 13.9329 5.38325C13.9282 5.42029 13.9282 5.45773 13.9329 5.49477C14.0231 5.80481 14.1273 6.7405 14.0406 7.02712C13.9376 7.37173 13.7619 7.69626 13.6378 8.03753C13.4259 8.61299 13.0406 9.07359 12.6612 9.55537C12.3907 9.89886 11.9739 10.1286 11.8135 10.5524C11.4528 10.6795 11.2947 11.0498 10.9832 11.2059C10.769 11.3175 10.7491 11.5662 10.475 11.6342C10.3053 11.6754 10.1238 11.8818 10.0406 12.1115C10.002 12.223 9.80643 12.2632 9.68933 12.3535C9.01135 12.9111 8.62259 13.6595 8.19051 14.3821C8.11023 14.5203 8.07248 14.6772 8.08161 14.8349C8.09683 15.2989 8.03477 15.7639 8.28067 16.2089C8.33989 16.3047 8.36257 16.4171 8.34486 16.5271C8.32715 16.637 8.27015 16.7377 8.18348 16.8122C8.11826 16.8967 8.08485 16.9997 8.08863 17.1044C8.08669 17.2067 8.05104 17.3057 7.98674 17.3876C7.92243 17.4694 7.83273 17.5299 7.73032 17.5606C7.49613 17.6286 7.3884 17.9275 7.09215 17.8461C6.84742 18.1505 6.60737 17.836 6.37903 17.8093C6.25977 17.8063 6.14655 17.7586 6.06407 17.6765C5.9816 17.5944 5.93655 17.4846 5.93875 17.371Z" fill="#FEAEFE"/>
<path d="M28 22.1431C27.8829 22.8625 27.8712 23.6799 27.404 24.3959C27.3185 24.5275 27.274 24.6948 27.1639 24.7996C26.7131 25.2312 26.3946 25.7721 25.8255 26.1123C25.1124 26.5372 24.4204 26.8227 23.6417 26.8796C23.4192 26.8963 23.2248 27.0056 22.9871 27C22.3115 26.9822 21.6908 26.8026 21.0515 26.6041C20.3899 26.4 19.9496 25.9171 19.3641 25.6361C18.9941 25.0718 18.4356 24.6234 18.2108 23.9733C18.0866 23.6088 17.9915 23.236 17.9262 22.858C17.8899 22.6495 17.6979 22.4532 17.8091 22.2391C17.9496 21.9614 17.8396 21.6502 17.9403 21.3982C18.0503 21.1238 18.0082 20.8662 18.0374 20.6008C18.0433 20.5483 18.0316 20.4747 18.0632 20.4457C18.3267 20.2026 18.322 19.8312 18.5211 19.568C18.7654 19.2672 19.0261 18.9787 19.3021 18.7037C19.4016 18.5978 19.4953 18.4807 19.6862 18.5063C19.8431 18.5253 19.7646 18.2186 19.9824 18.2766C20.0164 18.1294 20.3255 18.2498 20.2716 18.0056C20.2646 17.9766 20.3606 17.9353 20.3887 17.8874C20.4649 17.7547 20.7201 17.971 20.74 17.7089C20.7552 17.5037 20.9824 17.7022 21.0702 17.5829C21.1873 17.4312 21.3583 17.5227 21.5047 17.5115C21.7816 17.4804 22.0556 17.4293 22.3243 17.3588C22.5037 17.3161 22.6875 17.2933 22.8723 17.2907C23.0937 17.2907 23.3103 17.5216 23.5445 17.2907C23.5644 17.2707 23.6955 17.371 23.7787 17.3911C23.973 17.4453 24.1721 17.4826 24.3735 17.5026C24.5726 17.516 24.7143 17.6956 24.87 17.6967C25.2974 17.6967 25.5246 18.0179 25.8267 18.1963C26.6048 18.6673 27.2103 19.3566 27.5597 20.1692C27.7178 20.5171 27.959 20.8539 27.877 21.2699C28.0456 21.5186 27.9695 21.7963 28 22.1431ZM24.8267 20.6275C24.5574 20.6844 24.3759 20.5461 24.1627 20.4234C23.7178 20.1669 23.226 19.9996 22.6803 20.0788C22.4274 20.1167 22.178 20.1803 21.9227 20.2338C21.9063 20.2993 21.8742 20.3603 21.8289 20.412C21.7836 20.4637 21.7263 20.5046 21.6616 20.5316C21.3103 20.719 21.1182 21.0391 20.959 21.3904C20.8769 21.5893 20.8402 21.8025 20.8513 22.016C20.5375 22.2078 20.8653 22.4052 20.8759 22.5904C20.8946 22.9249 20.9801 23.3119 21.2857 23.5149C21.4379 23.6164 21.4028 23.5952 21.3302 23.7022C21.274 23.787 21.3302 23.8807 21.466 23.8684C21.7915 23.8383 21.8103 23.8461 21.9637 24.0915C22.2564 24.0915 22.5843 24.0112 22.8314 24.1127C23.0972 24.2242 23.2787 24.077 23.4988 24.0747C23.562 24.0747 23.6276 23.9822 23.6885 23.9855C24.1065 24.0078 24.2658 23.6164 24.5866 23.4892C24.6733 23.1234 24.9578 22.858 25.1218 22.5312C25.1555 22.474 25.1679 22.4076 25.1569 22.3428C24.9941 21.8677 24.9414 21.3614 24.7236 20.8996C24.692 20.8472 24.7728 20.7457 24.8267 20.6275Z" fill="#D3FE03"/>
<path d="M25.5117 7.43088C25.3037 7.49349 25.0917 7.54341 24.8771 7.58032C24.6635 7.59594 24.449 7.59594 24.2354 7.58032C24.1235 7.58793 24.0113 7.57233 23.9063 7.5346C23.6008 7.38116 23.3041 7.21214 23.0176 7.02828C22.5679 6.73162 22.4321 6.26768 22.37 5.78478C22.3226 5.34058 22.4112 4.89279 22.6253 4.49557C22.6503 4.41308 22.6828 4.33285 22.7225 4.25579C22.8244 4.11861 22.7916 3.8911 23.0984 3.88664C23.2658 3.88664 23.4157 3.62568 23.5996 3.5833C24.0843 3.47177 24.575 3.34575 25.0796 3.56545C25.4052 3.70709 25.7588 3.7885 26.0996 3.90672C26.1495 3.91779 26.1946 3.94353 26.2284 3.98032C26.3525 4.1911 26.4462 4.41861 26.5902 4.6149C26.6708 4.71426 26.7122 4.83739 26.7073 4.96285C26.7003 5.1859 26.7202 5.40895 26.7003 5.632C26.6985 5.82324 26.6588 6.01245 26.5832 6.18962C26.4345 6.4662 26.3923 6.83423 26.0867 6.9859C25.8255 7.11304 25.6862 7.32828 25.5117 7.43088Z" fill="#88D1FE"/>
<path d="M6.29507 22.103C6.31134 21.8701 6.34579 21.6386 6.39812 21.4105C6.49882 21.087 6.67681 20.806 7.0761 20.7413C7.38875 20.4201 7.79624 20.4067 8.21662 20.4067C8.63699 20.4067 8.99648 20.5238 9.22833 20.8863C9.24823 20.9175 9.28453 20.9376 9.30912 20.9666C9.48594 21.174 9.74004 21.3603 9.81732 21.5989C9.90631 21.8688 9.85011 22.1867 9.83254 22.4833C9.81935 22.6035 9.77465 22.7185 9.70257 22.8179C9.58547 22.9919 9.30444 23.0744 9.36767 23.3554C9.36767 23.3666 9.35011 23.3889 9.33488 23.3967C9.0761 23.5172 8.82669 23.6945 8.55268 23.7402C8.18888 23.8103 7.81381 23.8084 7.45081 23.7346C7.14971 23.6468 6.88461 23.4723 6.69203 23.235C6.46486 22.9517 6.22365 22.6261 6.32435 22.2146C6.32854 22.1775 6.32854 22.1401 6.32435 22.103H6.29507Z" fill="#FEAEFE"/>
<path d="M24.8267 20.6276C24.7764 20.7502 24.6956 20.8506 24.7214 20.8997C24.9392 21.3614 24.9918 21.8677 25.1546 22.3428C25.1656 22.4076 25.1533 22.4741 25.1195 22.5313C24.9555 22.858 24.671 23.1235 24.5844 23.4893C24.2635 23.6164 24.1043 24.0079 23.6862 23.9856C23.6253 23.9856 23.5598 24.0737 23.4965 24.0748C23.2764 24.0748 23.0949 24.2231 22.8291 24.1127C22.582 24.0112 22.2541 24.0915 21.9614 24.0915C21.808 23.8461 21.7893 23.8383 21.4637 23.8685C21.3279 23.8807 21.2717 23.787 21.3279 23.7023C21.3993 23.5908 21.4356 23.6164 21.2834 23.5149C20.9778 23.3119 20.8923 22.9227 20.8736 22.5904C20.863 22.4053 20.5352 22.2079 20.849 22.016C20.8379 21.8026 20.8747 21.5893 20.9567 21.3904C21.1183 21.0391 21.308 20.7212 21.6593 20.5317C21.724 20.5047 21.7813 20.4637 21.8266 20.412C21.872 20.3604 21.9041 20.2994 21.9204 20.2339C22.1757 20.1804 22.4251 20.1224 22.678 20.0789C23.219 19.9997 23.7155 20.167 24.1605 20.4235C24.3724 20.5462 24.5539 20.6844 24.8267 20.6276Z" fill="#EBFE91"/>
</g>
<defs>
<clipPath id="clip0">
<rect width="28" height="27" fill="white"/>
</clipPath>
</defs>
</svg>
