<svg width="35" height="34" viewBox="0 0 35 34" fill="none" xmlns="http://www.w3.org/2000/svg">
<path d="M23.5863 15.4153C23.703 14.9393 24.3213 15.132 24.508 14.7466L25.7096 14.4633L25.7446 14.316C25.943 14.384 26.1763 14.52 26.363 14.2933C26.783 14.3273 27.203 14.2026 27.6113 14.3613C27.7163 14.384 27.833 14.3953 27.938 14.4066C28.2063 14.452 28.498 14.4633 28.743 14.5766C29.3613 14.8713 30.0496 15.03 30.563 15.5286C30.598 15.5626 30.668 15.5513 30.7146 15.574C30.7846 15.608 31.823 16.8433 31.8696 16.9226C32.1613 17.376 32.348 17.8633 32.5463 18.3506C32.6513 18.5886 32.593 18.838 32.698 19.076C32.8146 19.348 32.7446 19.7106 32.7213 20.028C32.698 20.3453 32.8146 20.64 32.628 20.946C32.5346 21.0933 32.6746 21.354 32.4996 21.5126C32.5113 21.9546 32.2196 22.2606 32.0213 22.6233C31.9863 22.7253 31.9513 22.816 31.9046 22.918C31.8463 22.9973 31.718 23.02 31.683 23.0993C31.438 23.6433 30.9946 24.006 30.5046 24.312C30.283 24.448 30.1313 24.6633 29.898 24.788C29.6646 24.9126 29.3613 24.9126 29.1746 25.1393C29.128 25.196 28.9646 25.1393 28.918 25.196C28.7313 25.3886 28.4746 25.196 28.2646 25.332C28.1013 25.4453 27.8563 25.468 27.6346 25.4906C27.4246 25.502 27.203 25.502 26.993 25.502C26.7596 25.502 26.503 25.5586 26.3046 25.4906C25.8263 25.3206 25.2663 25.434 24.858 25.0486C24.4846 25.128 24.2513 24.8333 23.948 24.7086C23.6213 24.5726 23.4113 24.312 23.1546 24.0853C23.0263 23.9833 22.9563 23.802 22.758 23.7906C22.723 23.7793 22.688 23.7566 22.6763 23.7226C22.373 23.156 21.8246 22.7253 21.6496 22.102C21.5796 21.83 21.2996 21.6146 21.4046 21.2973C21.1596 21.0933 21.4046 20.7533 21.183 20.538C21.1363 20.4926 21.1713 20.3566 21.1713 20.266C21.1713 20.13 21.218 19.9713 21.1596 19.8806C20.9146 19.4953 21.218 19.1666 21.2296 18.8153C21.2413 18.43 21.4513 18.1013 21.533 17.7386C21.603 17.4326 21.7546 17.138 21.953 16.9C22.2446 16.5486 22.548 16.1973 22.8163 15.8346C22.9096 15.71 23.1196 15.676 23.178 15.472C23.2246 15.4153 23.4463 15.4266 23.5863 15.4153ZM29.8163 19.9146C29.8163 19.654 29.898 19.382 29.8046 19.2573C29.5246 18.8833 29.5713 18.3393 29.1163 18.0673C29.0813 17.7613 28.6146 17.8293 28.5913 17.4893C28.5913 17.4553 28.393 17.444 28.288 17.41C28.0546 17.3193 27.833 17.1833 27.588 17.1493C27.308 17.104 27.0046 17.1493 26.713 17.138C26.4563 17.138 26.1996 17.1946 25.9663 17.308C25.7213 17.4213 25.488 17.5573 25.2663 17.7046C24.473 18.2146 24.2046 18.9966 24.0996 19.858C24.088 19.9713 24.193 20.0846 24.2046 20.2093C24.228 20.3566 24.1696 20.5266 24.2163 20.6626C24.3096 20.9233 24.438 21.1726 24.5896 21.4106C24.7063 21.592 24.9513 21.6826 24.928 21.966C24.928 22.0113 25.068 22.1246 25.138 22.1246C25.3013 22.1246 25.3713 22.2153 25.488 22.2833C25.7213 22.4193 25.9663 22.544 26.188 22.6686C26.3746 22.7706 26.4446 22.4873 26.5613 22.6573C26.923 22.6686 27.2846 22.7026 27.6463 22.68C27.833 22.68 28.9996 21.9886 29.093 21.8413C29.478 21.2293 29.898 20.6286 29.8163 19.9146Z" fill="#87D1FE"/>
<path d="M3.56633 21.9546L3.44966 21.8299C3.75299 21.6713 3.86966 21.3426 4.13799 21.1613C4.14966 21.1499 4.16133 21.1273 4.18466 21.1273C4.41799 20.9913 4.67466 20.9799 4.93133 20.9686C5.02466 20.7079 5.23466 20.6399 5.47966 20.6513C5.64299 20.6626 5.78299 20.6399 5.88799 20.4926C5.92299 20.4246 6.01633 20.3906 6.08633 20.4246C6.09799 20.4359 6.12133 20.4473 6.13299 20.4586C6.19133 20.5039 6.26133 20.5153 6.33133 20.5153C6.93799 20.3906 7.05466 20.3906 7.59133 20.5153C7.73133 20.5493 7.94133 20.4699 8.03466 20.5493C8.24466 20.7079 8.45466 20.7419 8.69966 20.7873C8.90966 20.8213 9.07299 21.0706 9.29466 21.1499C9.59799 21.2633 9.86633 21.3879 9.99466 21.7053C10.298 21.8073 10.4263 22.0679 10.5897 22.3059C10.7063 22.4646 10.8463 22.6119 10.9513 22.7819C11.0447 22.9066 11.1147 23.0539 11.1497 23.2126C11.1847 23.8699 11.4997 24.4819 11.3947 25.1506C11.3597 25.3659 11.3947 25.5813 11.278 25.7853C11.1847 25.9553 11.1847 26.1593 11.1497 26.3519C11.138 26.4086 11.1497 26.4766 11.1147 26.5106C10.7763 26.8619 10.6247 27.3493 10.263 27.7006C9.528 28.4146 9.23633 28.6413 8.24466 28.9586C7.92966 29.0606 7.61466 29.1739 7.27633 29.1399C7.15966 29.1286 7.04299 29.1286 6.92633 29.1399C6.23799 29.2306 5.59633 29.0266 4.97799 28.7886C4.62799 28.6526 4.32466 28.3919 4.02133 28.1653C3.83466 28.0293 3.70633 27.8253 3.51966 27.7006C3.35633 27.5873 3.33299 27.3833 3.13466 27.2813C2.98299 27.2019 2.98299 26.8959 2.85466 26.7373C2.73799 26.5786 2.64466 26.4086 2.57466 26.2159C2.44633 25.8873 2.45799 25.5246 2.28299 25.1959C2.23633 25.1166 2.41133 24.9353 2.37633 24.8559C2.24799 24.6179 2.31799 24.4253 2.46966 24.2439C2.48133 24.2326 2.50466 24.2213 2.50466 24.1986C2.50466 24.0399 2.29466 23.9039 2.49299 23.7226C2.60966 23.6093 2.58633 23.3826 2.63299 23.2126C2.79633 22.7026 2.97133 22.1813 3.56633 21.9546ZM6.75133 26.5559C6.82133 26.4993 6.86799 26.4313 6.91466 26.4313C7.18299 26.4426 7.45133 26.4313 7.63799 26.1933C7.89466 26.2839 7.88299 26.0346 7.98799 25.9439C8.05799 25.8759 7.98799 25.7173 8.18633 25.7286C8.24466 25.7286 8.30299 25.5699 8.37299 25.4906C8.45466 25.3886 8.44299 25.2186 8.50133 25.1506C8.62966 24.9919 8.48966 24.8899 8.47799 24.7879C8.45466 24.6293 8.74633 24.5386 8.52466 24.3573C8.40799 24.2666 8.40799 24.0626 8.30299 23.9493C8.16299 23.7453 7.97633 23.5753 7.76633 23.4393C7.53299 23.3146 7.32299 23.1446 7.01966 23.1446C6.71633 23.1446 6.44799 23.2806 6.15633 23.3146C5.75966 23.7226 5.19966 24.0399 5.32799 24.7426C5.35133 24.8673 5.07133 24.9693 5.30466 25.1166C5.26966 25.4113 5.49133 25.6039 5.58466 25.8533C5.70133 26.1706 6.07466 26.1819 6.28466 26.3973C6.31966 26.4313 6.45966 26.3633 6.55299 26.3406C6.71633 26.2613 6.71633 26.3859 6.75133 26.5559Z" fill="#FEADFE"/>
<path d="M11.873 5.13592C12.048 5.11325 12.2113 5.12458 12.293 5.05658C12.573 4.84125 12.8997 4.87525 13.2147 4.87525C13.623 4.89792 14.008 5.03392 14.323 5.27192C14.568 5.41925 14.7197 5.66858 14.7547 5.94058C14.778 6.15592 15.1397 6.23525 14.988 6.46192C14.883 6.63192 14.8947 6.80192 14.883 6.98325C14.8597 7.40258 14.4047 8.13925 13.9963 8.24125C13.7163 8.30925 13.4247 8.34325 13.168 8.49058C12.6197 8.34325 11.9897 8.32058 11.6747 7.78792C11.5463 7.56125 11.3363 7.33458 11.313 7.09658C11.2897 6.86992 11.1847 6.62058 11.278 6.41658C11.3947 6.16725 11.3597 5.84992 11.6513 5.64592C11.7913 5.58925 11.803 5.32858 11.873 5.13592Z" fill="#D3FE06"/>
<path d="M29.8164 19.9146C29.898 20.6286 29.478 21.2293 29.1047 21.8413C29.023 21.9773 27.8447 22.6686 27.658 22.6799C27.2964 22.6913 26.9347 22.6686 26.573 22.6573C26.4564 22.4873 26.3747 22.7706 26.1997 22.6686C25.978 22.5326 25.7214 22.4193 25.4997 22.2833C25.383 22.2153 25.313 22.1246 25.1497 22.1246C25.0797 22.1246 24.9397 22.0226 24.9397 21.9659C24.963 21.6939 24.718 21.5919 24.6014 21.4106C24.4497 21.1726 24.3214 20.9233 24.228 20.6626C24.1814 20.5266 24.2397 20.3566 24.2164 20.2093C24.2047 20.0846 24.0997 19.9713 24.1114 19.8579C24.2164 18.9966 24.4847 18.2146 25.278 17.7046C25.4997 17.5573 25.733 17.4213 25.978 17.3079C26.2114 17.1946 26.468 17.1266 26.7247 17.1379C27.0164 17.1493 27.308 17.1039 27.5997 17.1493C27.8447 17.1833 28.0664 17.3306 28.2997 17.4099C28.4047 17.4439 28.603 17.4553 28.603 17.4893C28.6264 17.8179 29.093 17.7613 29.128 18.0673C29.583 18.3393 29.5247 18.8833 29.8164 19.2573C29.898 19.3819 29.8164 19.6539 29.8164 19.9146Z" fill="#CAE6FE"/>
<path d="M6.73964 26.5558C6.71631 26.3858 6.70464 26.2612 6.52964 26.3065C6.43631 26.3292 6.28464 26.3972 6.26131 26.3632C6.06298 26.1478 5.68964 26.1365 5.56131 25.8192C5.46798 25.5698 5.23464 25.3772 5.28131 25.0825C5.05964 24.9465 5.32798 24.8332 5.30464 24.7085C5.17631 24.0058 5.73631 23.6998 6.13298 23.2918C6.42464 23.2578 6.69298 23.1218 6.99631 23.1218C7.29964 23.1218 7.52131 23.2918 7.74297 23.4165C7.95297 23.5525 8.13964 23.7225 8.27964 23.9265C8.37297 24.0398 8.38464 24.2438 8.50131 24.3345C8.72297 24.5158 8.43131 24.6178 8.45464 24.7652C8.47797 24.8785 8.60631 24.9805 8.47797 25.1278C8.41964 25.1958 8.43131 25.3658 8.34964 25.4678C8.27964 25.5472 8.22131 25.7172 8.16297 25.7058C7.97631 25.6945 8.03464 25.8532 7.96464 25.9212C7.85964 26.0232 7.87131 26.2725 7.61464 26.1705C7.42797 26.4085 7.17131 26.4085 6.89131 26.4085C6.85631 26.4198 6.82131 26.4878 6.73964 26.5558Z" fill="#FEDEFE"/>
</svg>
